<svg xmlns="http://www.w3.org/2000/svg" width="31.5" height="31.5" viewBox="0 0 31.5 31.5"><defs><style>.a{fill:#0088A0;}</style></defs><g transform="translate(-115 -126)"><path class="a" d="M30.984,12.8l.5-2.812A.844.844,0,0,0,30.656,9H25.4l1.028-5.758a.844.844,0,0,0-.831-.992H22.737a.844.844,0,0,0-.831.7L20.825,9H13.89l1.028-5.758a.844.844,0,0,0-.831-.992H11.23a.844.844,0,0,0-.831.7L9.318,9H3.757a.844.844,0,0,0-.831.7l-.5,2.813a.844.844,0,0,0,.831.992h5.26l-1.607,9H1.346a.844.844,0,0,0-.831.7l-.5,2.813A.844.844,0,0,0,.844,27H6.1L5.076,32.758a.844.844,0,0,0,.831.992H8.763a.844.844,0,0,0,.831-.7L10.675,27H17.61l-1.028,5.758a.844.844,0,0,0,.831.992H20.27a.844.844,0,0,0,.831-.7L22.182,27h5.561a.844.844,0,0,0,.831-.7l.5-2.813a.844.844,0,0,0-.831-.992h-5.26l1.607-9h5.561a.844.844,0,0,0,.831-.7Zm-12.57,9.7H11.479l1.607-9h6.935Z" transform="translate(115 123.75)"/></g></svg>