<svg xmlns="http://www.w3.org/2000/svg" width="73" height="73" viewBox="0 0 73 73"><defs><style>.a{fill:#4b00f4;}.b{fill:#fff;}</style></defs><circle class="a" cx="36.5" cy="36.5" r="36.5"/><path class="b" d="M16.507-14.083a1.7,1.7,0,0,1-.022-.764q.067-.539.157-1.438,0-1.393.045-1.707l-.045-.9q0-.719.045-1.213v-1.3a5.273,5.273,0,0,0,.022-1.348,15.252,15.252,0,0,1,.067-2.4A14.485,14.485,0,0,1,17-26.933v-.9q0-.135.045-.944v-.315A1.806,1.806,0,0,0,17-29.9l.4-1.662.18-.944a4.568,4.568,0,0,1,.674-.764,2.079,2.079,0,0,1,1.033-.135q.9,0,1.348.045a.763.763,0,0,1,.584.247,2.761,2.761,0,0,1,.27.831,2.6,2.6,0,0,1,.135,1.483,2.7,2.7,0,0,1,.045.4v.449a5.457,5.457,0,0,1-.045,1.842,5.791,5.791,0,0,0,.045.719v.4a8.1,8.1,0,0,1-.135,1.573v1.123a2.83,2.83,0,0,1-.135,1.123q0,.18-.045,1.078-.09.315-.18.764a1.662,1.662,0,0,1,0,.944q-.135.135.09,1.078a5.564,5.564,0,0,0,.045,2.112v.9a12.752,12.752,0,0,1-.045,2.831v.27a6.675,6.675,0,0,1-.09,1.3,10.294,10.294,0,0,1,0,1.932v.27L21.09-8.6q-.494,3.19-2.876,3.639a4.478,4.478,0,0,1-4.628-1.573l-.27-.674q-.494-.09-1.3-2.067-1.258-3.01-1.393-3.325a18.816,18.816,0,0,1-.629-1.887l-.09-.854-.18-.359a4.117,4.117,0,0,1-.225-.539,6.2,6.2,0,0,0-.315-1.348q0-.09-.225-1.123l-.539-4a3.648,3.648,0,0,0-.045-.449l-.18.988q-.315,3.01-.449,3.639l-.225,4.538v1.8l-.135,2.2q0,1.662.135,3.1a2.55,2.55,0,0,1-.494,1.73,2.047,2.047,0,0,1-1.348.472,12.943,12.943,0,0,1-1.707-.674,1.03,1.03,0,0,1-.427-.741,1.851,1.851,0,0,0-.517-.966,1.438,1.438,0,0,1-.449-.9L2.04-11.387q0-.719.067-1.505a9.989,9.989,0,0,0,0-1.64,6.063,6.063,0,0,1,.225-1.977,6.347,6.347,0,0,0,.247-1.91,12.689,12.689,0,0,1,.09-2.022q.135-1.236.135-1.8a2.286,2.286,0,0,1,.135-.876,5.45,5.45,0,0,1,.09-1.123,5.6,5.6,0,0,1,.27-1.348,4.964,4.964,0,0,1,.135-.944q.135-.629.27-1.707A5.084,5.084,0,0,1,4.2-29.988,8.14,8.14,0,0,1,5.32-31.516a2.049,2.049,0,0,0,.719-1.168,2.941,2.941,0,0,1,1.168-.854,1.4,1.4,0,0,1,.831-.225A1.653,1.653,0,0,1,9-33.447a3.259,3.259,0,0,1,2.157,2.381l.18,1.123a4.389,4.389,0,0,0,.4,1.213,6.877,6.877,0,0,0,.18,1.3,3.074,3.074,0,0,0,.315,1.3q.449,2.291.674,3.19a2.523,2.523,0,0,1,.359.854q.09.4.359,1.213a9.571,9.571,0,0,0,.4,1.752,60.631,60.631,0,0,0,2.291,6.784,3.77,3.77,0,0,0,.09-1.123Zm9.48-4.628.449-1.662a.972.972,0,0,1,.225-.494l.315-1.348a3.373,3.373,0,0,1,.449-.854,4.247,4.247,0,0,1,.629-1.528,4.716,4.716,0,0,0,.629-.988,2.493,2.493,0,0,1,.449-.854,3.9,3.9,0,0,1,.809-.944,4.015,4.015,0,0,1,.4-.539,5.329,5.329,0,0,0,.764-.988,4.512,4.512,0,0,1,.809-.629,1.371,1.371,0,0,1,.315-.359q.135,0,.539-.4a2.145,2.145,0,0,1,.9-.9,2.436,2.436,0,0,1,.9-.4,1.02,1.02,0,0,0,.584-.315,1.012,1.012,0,0,0,.2-.045q.157-.045.382-.09a5.384,5.384,0,0,0,1.348-.315.659.659,0,0,1,.539-.045,5.629,5.629,0,0,1,2.381.539,1.4,1.4,0,0,1,.584.18q.225,0,.9.9a4.27,4.27,0,0,1,.764,1.3,1.252,1.252,0,0,1-.674,0q-1.707-.854-5.526,3.415a20.306,20.306,0,0,0-3.235,5.571,5.632,5.632,0,0,1-.4,1.3l-1.078,2.741q-.315.225-.449,3.909l-.09,1.348a2.976,2.976,0,0,0,.27,1.8,2.353,2.353,0,0,0,.562.944.946.946,0,0,0,.517.315,2.364,2.364,0,0,0,.674-.27q.539-.27,1.078-.494a1.23,1.23,0,0,0,.719-.449q.135,0,.359-.359,0-.27.359-.27.18,0,.449-.4l.359-.315q.18,0,.584-.494a1.872,1.872,0,0,0,.584-.9q.09,0,.359-.359a1.013,1.013,0,0,0,.494-.472,3.783,3.783,0,0,1,.719-.876,1.973,1.973,0,0,1,.764-.674q.09.09.494-.09.315-.09.674-.809.135-.045.135-.584a4.139,4.139,0,0,0,0-1.348,5.679,5.679,0,0,0-.944.135,3.776,3.776,0,0,1-2.561-.18.5.5,0,0,1-.27-.4,1.252,1.252,0,0,1-.135-.809,4.459,4.459,0,0,1,.9-1.528,1.353,1.353,0,0,1,.854-.494q.045,0,1.438-.27.225,0,1.415-.18t1.348-.022a.579.579,0,0,0,.472.135,2.857,2.857,0,0,1,1.056.27,2.4,2.4,0,0,1,1.1.786,9.429,9.429,0,0,1,.4,3.19q-.4,4.942-.4,6.47Q45.4-6.624,45.4-5.591a5.057,5.057,0,0,0,.225,1.662,2.431,2.431,0,0,1-.18,1.662,1.77,1.77,0,0,1-.427.988,1.11,1.11,0,0,1-.944.315q-.607-.045-.607-.337t-.494-.517q-.539-.449-.966-.764a6.337,6.337,0,0,1-.517-.4q-.359-.09-.292-.359a.957.957,0,0,0-.157-.674,31.131,31.131,0,0,1-.494-3.639q-.225-.809-.382-.809t-.786.719a3.534,3.534,0,0,1-.9,1.3q-.494.4-.988.854a13.708,13.708,0,0,1-1.236,1.078,1.377,1.377,0,0,0-.247.135q-.449.27-1.123.764a8.833,8.833,0,0,1-2.92.18,1.483,1.483,0,0,1-.9-.4q-.494-.4-.449-.4v-.045q0-.09-.27-.18a2.258,2.258,0,0,1-.584-.315q-.135,0-.247-.225A.836.836,0,0,0,29-5.366a.786.786,0,0,0-.225-.4q-.135,0-.27-.4-.045.09-.449-.315a3.592,3.592,0,0,1-.449-.494q-.4-.09-.4-.315a4.558,4.558,0,0,0-.449-.629l-.315-.584a4.693,4.693,0,0,1-.9-2.561q-.135,0-.09-.629a3.293,3.293,0,0,0-.045-.988q.18-.809-.09-1.033a2.858,2.858,0,0,1,0-1.483v-.764a5.783,5.783,0,0,1,.27-1.483,2.305,2.305,0,0,1,.18-.786Q25.943-18.711,25.988-18.711Z" transform="translate(12.96 53.762)"/></svg>