<svg xmlns="http://www.w3.org/2000/svg" width="775.16" height="114" viewBox="0 0 775.16 114"><defs><style>.a{fill:#dd3714;}.b{fill:#fff;}.c{fill:#193537;}</style></defs><g transform="translate(-658 -293)"><circle class="a" cx="57" cy="57" r="57" transform="translate(658 293)"/><g transform="translate(-407.56 24.869)"><g transform="translate(1082.929 302.541)"><path class="b" d="M29.048,32.148l.867-.417A31.988,31.988,0,0,1,26.36,16.746,18.13,18.13,0,0,1,29.5,5.972c2.1-2.953,3.822-4.843,8.256-5.72s8.657.7,9.481,2.212-3.082,1.66-5.553,5.13a23.091,23.091,0,0,0-3.929,7.32,29.663,29.663,0,0,0-1.654,7.8c-.174,3.773.333,6,1.191,9.894.946,3.8,1.731,5.451,2.9,7.164a17.1,17.1,0,0,1-4.43,2.188,18.762,18.762,0,0,1-5.223.6,12.3,12.3,0,0,1-10.063-5,20.917,20.917,0,0,1-2.816-5.606A54.353,54.353,0,0,1,15.2,17.074h-.875q-2.516,11.375-2.516,15.914a13.447,13.447,0,0,0,1.641,7.164,11.245,11.245,0,0,1-6.836,2.461q-3.555,0-5.086-2.051T0,34.438c0-2.716,3.2-21.114,3.445-23.106S.547,5.48.547,5.48Q6.672,1.543,11.485,1.543t7.274,1.668A8.765,8.765,0,0,1,22.2,8.105a41.68,41.68,0,0,1,1.449,6.809q.465,3.582,1.641,8.613C26.077,26.882,27.626,29.45,29.048,32.148Z" transform="translate(0 0)"/></g><g transform="matrix(0.999, -0.035, 0.035, 0.999, 1123.908, 304.12)"><path class="b" d="M25.047,29.149l-2.789-5.742q5.852-3.883,10.555-3.883,3.938,0,3.938,4.43a56.071,56.071,0,0,1-1.5,7.684,46.887,46.887,0,0,0-1.5,9.817,7.34,7.34,0,0,0,1.477,5.031,10.68,10.68,0,0,1-6.4,2.242q-3.336,0-4.731-2.188a11.991,11.991,0,0,1-1.395-6.4,21.447,21.447,0,0,1-6.125.875q-7.438,0-12-4.594T0,22.86a20.285,20.285,0,0,1,1.641-7.793A26.062,26.062,0,0,1,6.289,7.711,22.621,22.621,0,0,1,14.137,2.16,24.305,24.305,0,0,1,24.145,0q5.168,0,8.094,1.914a6.012,6.012,0,0,1,2.926,5.3A6.557,6.557,0,0,1,32.95,12.5a7.581,7.581,0,0,1-5.059,1.887,10.553,10.553,0,0,1-5.113-1.23,9.382,9.382,0,0,1-3.637-3.527A11.838,11.838,0,0,0,14.055,15.2a18.8,18.8,0,0,0-2.133,8.7q0,4.539,1.777,6.809a5.445,5.445,0,0,0,4.457,2.27Q22.039,32.977,25.047,29.149Z" transform="translate(0)"/></g></g></g><path class="c" d="M-266.44-52.8V0h-15.28l-16.4-28.56-4-7.84h-.08l.32,9.76V0h-12.16V-52.8h15.28l16.4,28.56,4,7.84h.08l-.32-9.76V-52.8Zm30,53.6a24.88,24.88,0,0,1-11.48-2.48A17.69,17.69,0,0,1-255.4-8.8,22.307,22.307,0,0,1-258.04-20a22.307,22.307,0,0,1,2.64-11.2,17.8,17.8,0,0,1,7.4-7.12,23.291,23.291,0,0,1,10.92-2.48,22.051,22.051,0,0,1,10.76,2.44,16.575,16.575,0,0,1,6.76,6.72,20.236,20.236,0,0,1,2.32,9.8q0,1.44-.08,2.88a22.635,22.635,0,0,1-.24,2.4h-31.68v-7.28h25.68l-6.48,2.48q0-4.8-1.72-7.36a5.961,5.961,0,0,0-5.32-2.56,7.68,7.68,0,0,0-4.36,1.2,7.292,7.292,0,0,0-2.72,3.76,19.7,19.7,0,0,0-.92,6.56,16.409,16.409,0,0,0,1.04,6.36,7,7,0,0,0,2.96,3.52,9.328,9.328,0,0,0,4.64,1.08A8.612,8.612,0,0,0-231.6-10a7.17,7.17,0,0,0,2.68-3.36l10.88,3.6a12.645,12.645,0,0,1-3.88,5.8A18.557,18.557,0,0,1-228.48-.4,26.276,26.276,0,0,1-236.44.8ZM-158.36-40h14.24L-156.2,0h-16.32l-7.28-24.56L-186.84,0h-16.24l-12.16-40h14.32l6.72,29.52L-186.36-40h13.44l7.76,29.52ZM-122.28.8a31.171,31.171,0,0,1-11.16-1.96,21.789,21.789,0,0,1-8.52-5.64l6.4-7.52a15.894,15.894,0,0,0,5.32,4.28,15.844,15.844,0,0,0,7.4,1.72,9.986,9.986,0,0,0,4.08-.72,2.361,2.361,0,0,0,1.6-2.24,2.245,2.245,0,0,0-.8-1.8,7.648,7.648,0,0,0-3.2-1.16l-5.6-1.12q-7.52-1.52-10.68-4.52a10.365,10.365,0,0,1-3.16-7.88,11.152,11.152,0,0,1,2-6.28,14.139,14.139,0,0,1,6.16-4.88A25.96,25.96,0,0,1-121.8-40.8a30.118,30.118,0,0,1,10.72,1.76,16.957,16.957,0,0,1,7.36,5.12l-6.48,7.36a13.049,13.049,0,0,0-4.96-3.76,14.781,14.781,0,0,0-6.08-1.36,12.493,12.493,0,0,0-3.24.36,4.355,4.355,0,0,0-1.96,1,2.171,2.171,0,0,0-.64,1.6,2.219,2.219,0,0,0,1,1.8,9.909,9.909,0,0,0,3.72,1.32l7.28,1.44q6.16,1.12,8.88,4.08a10.153,10.153,0,0,1,2.72,7.12,12.405,12.405,0,0,1-2.08,7.04A13.839,13.839,0,0,1-111.8-1,26.5,26.5,0,0,1-122.28.8ZM-83-56.96V-13.6a6.185,6.185,0,0,0,.88,3.76,3.546,3.546,0,0,0,2.96,1.12,10.444,10.444,0,0,0,2-.16q.8-.16,1.92-.48l-.88,8.16A13.187,13.187,0,0,1-79.88.24,19.39,19.39,0,0,1-84.44.8q-6.4,0-9.28-2.96t-2.88-9.68V-56.96ZM-50.76.8A24.88,24.88,0,0,1-62.24-1.68,17.69,17.69,0,0,1-69.72-8.8,22.307,22.307,0,0,1-72.36-20a22.307,22.307,0,0,1,2.64-11.2,17.8,17.8,0,0,1,7.4-7.12A23.291,23.291,0,0,1-51.4-40.8a22.051,22.051,0,0,1,10.76,2.44,16.575,16.575,0,0,1,6.76,6.72,20.236,20.236,0,0,1,2.32,9.8q0,1.44-.08,2.88a22.639,22.639,0,0,1-.24,2.4H-63.56v-7.28h25.68l-6.48,2.48q0-4.8-1.72-7.36a5.961,5.961,0,0,0-5.32-2.56,7.68,7.68,0,0,0-4.36,1.2,7.292,7.292,0,0,0-2.72,3.76,19.7,19.7,0,0,0-.92,6.56,16.409,16.409,0,0,0,1.04,6.36A7,7,0,0,0-55.4-9.88,9.328,9.328,0,0,0-50.76-8.8,8.612,8.612,0,0,0-45.92-10a7.17,7.17,0,0,0,2.68-3.36l10.88,3.6a12.645,12.645,0,0,1-3.88,5.8A18.557,18.557,0,0,1-42.8-.4,26.276,26.276,0,0,1-50.76.8ZM-7.72-52.72v38.48q0,2.88,1.4,4.12A5.65,5.65,0,0,0-2.44-8.88,11.128,11.128,0,0,0,.88-9.32,7.851,7.851,0,0,0,3.4-10.64l1.44,8.4A15.168,15.168,0,0,1-.2,0,24.416,24.416,0,0,1-6.44.8,21.888,21.888,0,0,1-14.32-.48a10.3,10.3,0,0,1-5.12-4.08A14.059,14.059,0,0,1-21.32-12V-48.96ZM4.2-40v9.68H-28.2V-40ZM24.28-52.72v38.48q0,2.88,1.4,4.12a5.65,5.65,0,0,0,3.88,1.24,11.128,11.128,0,0,0,3.32-.44,7.851,7.851,0,0,0,2.52-1.32l1.44,8.4A15.168,15.168,0,0,1,31.8,0a24.416,24.416,0,0,1-6.24.8A21.888,21.888,0,0,1,17.68-.48a10.3,10.3,0,0,1-5.12-4.08A14.059,14.059,0,0,1,10.68-12V-48.96ZM36.2-40v9.68H3.8V-40ZM62.04.8A24.88,24.88,0,0,1,50.56-1.68,17.69,17.69,0,0,1,43.08-8.8,22.307,22.307,0,0,1,40.44-20a22.307,22.307,0,0,1,2.64-11.2,17.8,17.8,0,0,1,7.4-7.12A23.291,23.291,0,0,1,61.4-40.8a22.051,22.051,0,0,1,10.76,2.44,16.575,16.575,0,0,1,6.76,6.72,20.236,20.236,0,0,1,2.32,9.8q0,1.44-.08,2.88a22.639,22.639,0,0,1-.24,2.4H49.24v-7.28H74.92l-6.48,2.48q0-4.8-1.72-7.36a5.961,5.961,0,0,0-5.32-2.56,7.68,7.68,0,0,0-4.36,1.2,7.292,7.292,0,0,0-2.72,3.76,19.7,19.7,0,0,0-.92,6.56,16.409,16.409,0,0,0,1.04,6.36A7,7,0,0,0,57.4-9.88,9.328,9.328,0,0,0,62.04-8.8,8.612,8.612,0,0,0,66.88-10a7.17,7.17,0,0,0,2.68-3.36l10.88,3.6a12.645,12.645,0,0,1-3.88,5.8A18.557,18.557,0,0,1,70-.4,26.276,26.276,0,0,1,62.04.8ZM88.84,0V-40h12l.56,8.64a15.028,15.028,0,0,1,4.52-6.96,11.592,11.592,0,0,1,7.64-2.48,12.157,12.157,0,0,1,2.6.24,5.537,5.537,0,0,1,1.72.64l-1.36,11.2a9.791,9.791,0,0,0-2.04-.52,19.2,19.2,0,0,0-3-.2A9.879,9.879,0,0,0,107-28.4a8.024,8.024,0,0,0-3.32,3.08,9.793,9.793,0,0,0-1.24,5.16V0Zm78.88.8A24.855,24.855,0,0,1,155.2-2.32a21.147,21.147,0,0,1-8.52-9.2,32.832,32.832,0,0,1-3.04-14.8,31.071,31.071,0,0,1,3.2-14.64A22.307,22.307,0,0,1,156-50.32a28.675,28.675,0,0,1,14.04-3.28q8.96,0,14.48,3.24a21.123,21.123,0,0,1,8.56,10.28l-12.72,5.04a9.826,9.826,0,0,0-3.68-5.92,11.2,11.2,0,0,0-6.56-1.84,11.772,11.772,0,0,0-6.72,1.88,11.515,11.515,0,0,0-4.24,5.52,24.58,24.58,0,0,0-1.44,9,25.71,25.71,0,0,0,1.48,9.36,10.989,10.989,0,0,0,4.4,5.56,13.561,13.561,0,0,0,7.24,1.8,15.108,15.108,0,0,0,4.24-.56,10.389,10.389,0,0,0,3.36-1.64,7.409,7.409,0,0,0,2.24-2.72,8.763,8.763,0,0,0,.8-3.88v-.8H169.4v-9.2h23.76V0H183.8l-1.04-12.4L185-10.48a15.028,15.028,0,0,1-6.04,8.36Q174.6.8,167.72.8ZM216.2-56.96V-13.6a6.185,6.185,0,0,0,.88,3.76,3.546,3.546,0,0,0,2.96,1.12,10.444,10.444,0,0,0,2-.16q.8-.16,1.92-.48l-.88,8.16A13.187,13.187,0,0,1,219.32.24a19.39,19.39,0,0,1-4.56.56q-6.4,0-9.28-2.96t-2.88-9.68V-56.96ZM242.44.8a17.152,17.152,0,0,1-7.16-1.4,10.429,10.429,0,0,1-4.84-4.52,16.531,16.531,0,0,1-1.76-8.16V-40h13.6v23.52q0,3.84,1.52,5.36a5.844,5.844,0,0,0,4.32,1.52,7.157,7.157,0,0,0,2.72-.52,5.984,5.984,0,0,0,2.24-1.6,7.352,7.352,0,0,0,1.48-2.8,14.021,14.021,0,0,0,.52-4.04V-40h13.6V0H256.52l-.4-7.52a13.49,13.49,0,0,1-5.36,6.28A16.034,16.034,0,0,1,242.44.8Zm55.52,0a24.88,24.88,0,0,1-11.48-2.48A17.689,17.689,0,0,1,279-8.8,22.307,22.307,0,0,1,276.36-20,22.307,22.307,0,0,1,279-31.2a17.8,17.8,0,0,1,7.4-7.12,23.291,23.291,0,0,1,10.92-2.48,22.051,22.051,0,0,1,10.76,2.44,16.575,16.575,0,0,1,6.76,6.72,20.236,20.236,0,0,1,2.32,9.8q0,1.44-.08,2.88a22.643,22.643,0,0,1-.24,2.4H285.16v-7.28h25.68l-6.48,2.48q0-4.8-1.72-7.36a5.961,5.961,0,0,0-5.32-2.56,7.68,7.68,0,0,0-4.36,1.2,7.292,7.292,0,0,0-2.72,3.76,19.7,19.7,0,0,0-.92,6.56,16.409,16.409,0,0,0,1.04,6.36,7,7,0,0,0,2.96,3.52,9.328,9.328,0,0,0,4.64,1.08A8.612,8.612,0,0,0,302.8-10a7.17,7.17,0,0,0,2.68-3.36l10.88,3.6a12.645,12.645,0,0,1-3.88,5.8A18.557,18.557,0,0,1,305.92-.4,26.276,26.276,0,0,1,297.96.8Z" transform="translate(458 85)"/></svg>