<svg xmlns="http://www.w3.org/2000/svg" width="111.001" height="111.001" viewBox="0 0 111.001 111.001"><defs><style>.a{fill:#0588a0;}</style></defs>


<path class="a" d="M-14-283v-99.9A11.115,11.115,0,0,1-2.9-394H85.9A11.115,11.115,0,0,1,97-382.9v66.6a11.113,11.113,0,0,1-11.1,11.1H8.2l-22.194,22.194Zm41.742-92.5a14.333,14.333,0,0,0-9.425,3.443,15.85,15.85,0,0,0-5.568,11.422A16.113,16.113,0,0,0,17.2-348.693l21.745,22.454a3.524,3.524,0,0,0,2.546,1.086,3.524,3.524,0,0,0,2.546-1.086l21.745-22.454a16.11,16.11,0,0,0,4.466-11.942,15.84,15.84,0,0,0-5.565-11.421,14.337,14.337,0,0,0-9.423-3.443,16.213,16.213,0,0,0-11.549,4.971L41.5-368.246l-2.211-2.281A16.192,16.192,0,0,0,27.742-375.5Z" transform="translate(14 394)"/>

</svg>